# xmcd
#
# Track frame offsets:
#	150
#	19030
#	45212
#	67605
#	92150
#	118132
#	138632
#	161715
#	186682
#	204985
#
# Disc length: 3002 seconds
#
# Revision: 2
# Processed by: cddbd v1.5.2PL0 Copyright (c) Steve Scherf et al.
# Submitted via: EZCDAudioConverter 8.0.2.1
#
DISCID=860bb80a
DTITLE=Mạnh Quỳnh - Số Nghèo
DYEAR=2001
DGENRE=
TTITLE0=Mạnh Quỳnh - Số Nghèo
TTITLE1=Mạnh Quỳnh - Hãy quên nhau
TTITLE2=Mạnh Quỳnh, Như Quỳnh - Như một cơn mê
TTITLE3=Mạnh Quỳnh - màu hoa bí
TTITLE4=Mạnh Quỳnh - Chim sáo ngày xưa
TTITLE5=Mạnh Quỳnh - Câu hát tình quê
TTITLE6=Mạnh Quỳnh, Phi Nhung - Phận bạc
TTITLE7=Mạnh Quỳnh - Nếu biết tình yêu
TTITLE8=Mạnh Quỳnh - Một lần dang dở
TTITLE9=Mạnh Quỳnh - Tình yêu trả lại tăng sao
EXTD=
EXTT0=
EXTT1=
EXTT2=
EXTT3=
EXTT4=
EXTT5=
EXTT6=
EXTT7=
EXTT8=
EXTT9=
PLAYORDER=
